# xmcd
#
# Track frame offsets: 
#        150
#        19645
#        39426
#        58228
#        75799
#        93084
#        107680
#        127649
#        143652
#        155937
#        166400
#        183161
#        197809
#        217096
#        233261
#        251354
#        262494
#        278748
#        295871
#        311884
#
# Disc length: 4419 seconds
#
# Revision: 2
# Processed by: cddbd v1.5.2PL0 Copyright (c) Steve Scherf et al.
# Submitted via: ExactAudioCopyFreeDBPlugin 1.0
#
DISCID=11114114
DTITLE=Various Artist - As Melhores Canções Gauchas Vol. 1
DYEAR=1993
DGENRE=Gaúcha
TTITLE0=Os Araganos - Céu, Sol, Sul Terra e Cor
TTITLE1=Allex - Tertulia
TTITLE2=Cesar Passarinho - Guri
TTITLE3=Dante Ramon Ledesma - America Latina
TTITLE4=Victor Hugo - Desgarrados
TTITLE5=Caverá - Homens de Preto
TTITLE6=Os Farrapos - Me Comparando ao Rio Grande
TTITLE7=Daniel Torres - Canto Alegretense
TTITLE8=Noel Guarany - Romance do Pala Velho
TTITLE9=José Claudio Machado - Quando Sopra o Minuano
TTITLE10=Victor Hugo - Vento Negro
TTITLE11=Caverá - Potro Sem Dono
TTITLE12=João de Almeida Neto - Vozes Rurais
TTITLE13=Os Serranos - Baile da Mariquinha
TTITLE14=Leopoldo Rassier - Segredos do Meu Cambicho
TTITLE15=Allex - Barranca e Fronteira
TTITLE16=Cenair Maicá - Da Terra Nasceram Gritos
TTITLE17=Valdomiro Maicá - Baile do Sapucay
TTITLE18=Raul Ellwanger - Pealo de Sangue
TTITLE19=Jorge Guedes - Na Baixada do Manduca
EXTD=
EXTT0=
EXTT1=
EXTT2=
EXTT3=
EXTT4=
EXTT5=
EXTT6=
EXTT7=
EXTT8=
EXTT9=
EXTT10=
EXTT11=
EXTT12=
EXTT13=
EXTT14=
EXTT15=
EXTT16=
EXTT17=
EXTT18=
EXTT19=
PLAYORDER=
